<mxfile host="app.diagrams.net" modified="2024-03-26T06:41:05.895Z" agent="Mozilla/5.0 (Macintosh; Intel Mac OS X 10_15_7) AppleWebKit/537.36 (KHTML, like Gecko) Chrome/123.0.0.0 Safari/537.36" etag="pka1COmEVX5nKMxsylEd" version="24.1.0" type="github">
  <diagram id="R2lEEEUBdFMjLlhIrx00" name="Page-1">
    <mxGraphModel dx="1645" dy="1520" grid="1" gridSize="10" guides="1" tooltips="1" connect="1" arrows="1" fold="1" page="1" pageScale="1" pageWidth="850" pageHeight="1100" math="0" shadow="0" extFonts="Permanent Marker^https://fonts.googleapis.com/css?family=Permanent+Marker">
      <root>
        <mxCell id="0" />
        <mxCell id="1" parent="0" />
        <mxCell id="IRetKzblwTkp2qWtMgvH-31" style="edgeStyle=orthogonalEdgeStyle;rounded=0;orthogonalLoop=1;jettySize=auto;html=1;exitX=1;exitY=0.5;exitDx=0;exitDy=0;" edge="1" parent="1" source="IRetKzblwTkp2qWtMgvH-1" target="IRetKzblwTkp2qWtMgvH-30">
          <mxGeometry relative="1" as="geometry" />
        </mxCell>
        <mxCell id="IRetKzblwTkp2qWtMgvH-1" value="Customer" style="whiteSpace=wrap;html=1;aspect=fixed;" vertex="1" parent="1">
          <mxGeometry x="210" y="120" width="80" height="80" as="geometry" />
        </mxCell>
        <mxCell id="IRetKzblwTkp2qWtMgvH-64" style="edgeStyle=orthogonalEdgeStyle;rounded=0;orthogonalLoop=1;jettySize=auto;html=1;entryX=0;entryY=0.5;entryDx=0;entryDy=0;" edge="1" parent="1" source="IRetKzblwTkp2qWtMgvH-2" target="IRetKzblwTkp2qWtMgvH-63">
          <mxGeometry relative="1" as="geometry" />
        </mxCell>
        <mxCell id="IRetKzblwTkp2qWtMgvH-79" style="edgeStyle=orthogonalEdgeStyle;rounded=0;orthogonalLoop=1;jettySize=auto;html=1;" edge="1" parent="1" source="IRetKzblwTkp2qWtMgvH-2" target="IRetKzblwTkp2qWtMgvH-78">
          <mxGeometry relative="1" as="geometry" />
        </mxCell>
        <mxCell id="IRetKzblwTkp2qWtMgvH-89" style="edgeStyle=orthogonalEdgeStyle;rounded=0;orthogonalLoop=1;jettySize=auto;html=1;exitX=0;exitY=0.5;exitDx=0;exitDy=0;entryX=1;entryY=0.5;entryDx=0;entryDy=0;" edge="1" parent="1" source="IRetKzblwTkp2qWtMgvH-2" target="IRetKzblwTkp2qWtMgvH-88">
          <mxGeometry relative="1" as="geometry" />
        </mxCell>
        <mxCell id="IRetKzblwTkp2qWtMgvH-2" value="Order" style="whiteSpace=wrap;html=1;aspect=fixed;" vertex="1" parent="1">
          <mxGeometry x="400" y="420" width="80" height="80" as="geometry" />
        </mxCell>
        <mxCell id="IRetKzblwTkp2qWtMgvH-3" value="Payment" style="whiteSpace=wrap;html=1;aspect=fixed;" vertex="1" parent="1">
          <mxGeometry x="880" y="420" width="80" height="80" as="geometry" />
        </mxCell>
        <mxCell id="IRetKzblwTkp2qWtMgvH-4" value="Reservation" style="whiteSpace=wrap;html=1;aspect=fixed;" vertex="1" parent="1">
          <mxGeometry x="670" y="120" width="80" height="80" as="geometry" />
        </mxCell>
        <mxCell id="IRetKzblwTkp2qWtMgvH-41" style="edgeStyle=orthogonalEdgeStyle;rounded=0;orthogonalLoop=1;jettySize=auto;html=1;" edge="1" parent="1" source="IRetKzblwTkp2qWtMgvH-5" target="IRetKzblwTkp2qWtMgvH-30">
          <mxGeometry relative="1" as="geometry" />
        </mxCell>
        <mxCell id="IRetKzblwTkp2qWtMgvH-5" value="Table" style="whiteSpace=wrap;html=1;aspect=fixed;" vertex="1" parent="1">
          <mxGeometry x="400" y="-160" width="80" height="80" as="geometry" />
        </mxCell>
        <mxCell id="IRetKzblwTkp2qWtMgvH-6" value="Delivery" style="whiteSpace=wrap;html=1;aspect=fixed;" vertex="1" parent="1">
          <mxGeometry x="810" y="740" width="80" height="80" as="geometry" />
        </mxCell>
        <mxCell id="IRetKzblwTkp2qWtMgvH-7" value="Menu" style="whiteSpace=wrap;html=1;aspect=fixed;" vertex="1" parent="1">
          <mxGeometry x="-140" y="420" width="80" height="80" as="geometry" />
        </mxCell>
        <mxCell id="IRetKzblwTkp2qWtMgvH-8" value="Coffee" style="whiteSpace=wrap;html=1;aspect=fixed;" vertex="1" parent="1">
          <mxGeometry x="60" y="740" width="80" height="80" as="geometry" />
        </mxCell>
        <mxCell id="IRetKzblwTkp2qWtMgvH-20" style="edgeStyle=orthogonalEdgeStyle;rounded=0;orthogonalLoop=1;jettySize=auto;html=1;entryX=0;entryY=0.25;entryDx=0;entryDy=0;" edge="1" parent="1" source="IRetKzblwTkp2qWtMgvH-9" target="IRetKzblwTkp2qWtMgvH-1">
          <mxGeometry relative="1" as="geometry" />
        </mxCell>
        <mxCell id="IRetKzblwTkp2qWtMgvH-9" value="&lt;font face=&quot;Tahoma&quot; style=&quot;font-size: 12px;&quot;&gt;&lt;b style=&quot;&quot;&gt;customer_id&lt;/b&gt;&lt;/font&gt;" style="ellipse;whiteSpace=wrap;html=1;aspect=fixed;" vertex="1" parent="1">
          <mxGeometry x="20" y="-10" width="80" height="80" as="geometry" />
        </mxCell>
        <mxCell id="IRetKzblwTkp2qWtMgvH-19" style="edgeStyle=orthogonalEdgeStyle;rounded=0;orthogonalLoop=1;jettySize=auto;html=1;entryX=0;entryY=0.5;entryDx=0;entryDy=0;" edge="1" parent="1" source="IRetKzblwTkp2qWtMgvH-10" target="IRetKzblwTkp2qWtMgvH-1">
          <mxGeometry relative="1" as="geometry" />
        </mxCell>
        <mxCell id="IRetKzblwTkp2qWtMgvH-10" value="email" style="ellipse;whiteSpace=wrap;html=1;aspect=fixed;" vertex="1" parent="1">
          <mxGeometry y="90" width="60" height="60" as="geometry" />
        </mxCell>
        <mxCell id="IRetKzblwTkp2qWtMgvH-21" value="" style="edgeStyle=orthogonalEdgeStyle;rounded=0;orthogonalLoop=1;jettySize=auto;html=1;" edge="1" parent="1" source="IRetKzblwTkp2qWtMgvH-11" target="IRetKzblwTkp2qWtMgvH-1">
          <mxGeometry relative="1" as="geometry" />
        </mxCell>
        <mxCell id="IRetKzblwTkp2qWtMgvH-11" value="firstname" style="ellipse;whiteSpace=wrap;html=1;aspect=fixed;" vertex="1" parent="1">
          <mxGeometry x="160" y="-60" width="60" height="60" as="geometry" />
        </mxCell>
        <mxCell id="IRetKzblwTkp2qWtMgvH-18" style="edgeStyle=orthogonalEdgeStyle;rounded=0;orthogonalLoop=1;jettySize=auto;html=1;exitX=1;exitY=0;exitDx=0;exitDy=0;entryX=0;entryY=0.75;entryDx=0;entryDy=0;" edge="1" parent="1" source="IRetKzblwTkp2qWtMgvH-12" target="IRetKzblwTkp2qWtMgvH-1">
          <mxGeometry relative="1" as="geometry" />
        </mxCell>
        <mxCell id="IRetKzblwTkp2qWtMgvH-12" value="lastname" style="ellipse;whiteSpace=wrap;html=1;aspect=fixed;" vertex="1" parent="1">
          <mxGeometry x="60" y="170" width="60" height="60" as="geometry" />
        </mxCell>
        <mxCell id="IRetKzblwTkp2qWtMgvH-22" style="edgeStyle=orthogonalEdgeStyle;rounded=0;orthogonalLoop=1;jettySize=auto;html=1;entryX=0;entryY=1;entryDx=0;entryDy=0;" edge="1" parent="1" source="IRetKzblwTkp2qWtMgvH-13" target="IRetKzblwTkp2qWtMgvH-1">
          <mxGeometry relative="1" as="geometry" />
        </mxCell>
        <mxCell id="IRetKzblwTkp2qWtMgvH-13" value="phone" style="ellipse;whiteSpace=wrap;html=1;aspect=fixed;" vertex="1" parent="1">
          <mxGeometry x="40" y="270" width="60" height="60" as="geometry" />
        </mxCell>
        <mxCell id="IRetKzblwTkp2qWtMgvH-33" style="edgeStyle=orthogonalEdgeStyle;rounded=0;orthogonalLoop=1;jettySize=auto;html=1;" edge="1" parent="1" source="IRetKzblwTkp2qWtMgvH-23" target="IRetKzblwTkp2qWtMgvH-4">
          <mxGeometry relative="1" as="geometry" />
        </mxCell>
        <mxCell id="IRetKzblwTkp2qWtMgvH-23" value="&lt;font face=&quot;Tahoma&quot;&gt;&lt;b&gt;reservation_id&lt;/b&gt;&lt;/font&gt;" style="ellipse;whiteSpace=wrap;html=1;aspect=fixed;" vertex="1" parent="1">
          <mxGeometry x="860" y="115" width="90" height="90" as="geometry" />
        </mxCell>
        <mxCell id="IRetKzblwTkp2qWtMgvH-35" style="edgeStyle=orthogonalEdgeStyle;rounded=0;orthogonalLoop=1;jettySize=auto;html=1;" edge="1" parent="1" source="IRetKzblwTkp2qWtMgvH-24" target="IRetKzblwTkp2qWtMgvH-4">
          <mxGeometry relative="1" as="geometry" />
        </mxCell>
        <mxCell id="IRetKzblwTkp2qWtMgvH-24" value="customer_id" style="ellipse;whiteSpace=wrap;html=1;aspect=fixed;" vertex="1" parent="1">
          <mxGeometry x="675" y="-40" width="70" height="70" as="geometry" />
        </mxCell>
        <mxCell id="IRetKzblwTkp2qWtMgvH-36" style="edgeStyle=orthogonalEdgeStyle;rounded=0;orthogonalLoop=1;jettySize=auto;html=1;entryX=1;entryY=0;entryDx=0;entryDy=0;" edge="1" parent="1" source="IRetKzblwTkp2qWtMgvH-25" target="IRetKzblwTkp2qWtMgvH-4">
          <mxGeometry relative="1" as="geometry" />
        </mxCell>
        <mxCell id="IRetKzblwTkp2qWtMgvH-25" value="table_id" style="ellipse;whiteSpace=wrap;html=1;aspect=fixed;" vertex="1" parent="1">
          <mxGeometry x="830" y="20" width="65" height="65" as="geometry" />
        </mxCell>
        <mxCell id="IRetKzblwTkp2qWtMgvH-34" style="edgeStyle=orthogonalEdgeStyle;rounded=0;orthogonalLoop=1;jettySize=auto;html=1;entryX=0;entryY=0;entryDx=0;entryDy=0;" edge="1" parent="1" source="IRetKzblwTkp2qWtMgvH-26" target="IRetKzblwTkp2qWtMgvH-4">
          <mxGeometry relative="1" as="geometry" />
        </mxCell>
        <mxCell id="IRetKzblwTkp2qWtMgvH-26" value="reservation_date" style="ellipse;whiteSpace=wrap;html=1;aspect=fixed;" vertex="1" parent="1">
          <mxGeometry x="560" y="-50" width="90" height="90" as="geometry" />
        </mxCell>
        <mxCell id="IRetKzblwTkp2qWtMgvH-38" style="edgeStyle=orthogonalEdgeStyle;rounded=0;orthogonalLoop=1;jettySize=auto;html=1;entryX=0.5;entryY=1;entryDx=0;entryDy=0;" edge="1" parent="1" source="IRetKzblwTkp2qWtMgvH-27" target="IRetKzblwTkp2qWtMgvH-4">
          <mxGeometry relative="1" as="geometry" />
        </mxCell>
        <mxCell id="IRetKzblwTkp2qWtMgvH-27" value="reservation_time" style="ellipse;whiteSpace=wrap;html=1;aspect=fixed;" vertex="1" parent="1">
          <mxGeometry x="660" y="260" width="100" height="100" as="geometry" />
        </mxCell>
        <mxCell id="IRetKzblwTkp2qWtMgvH-37" style="edgeStyle=orthogonalEdgeStyle;rounded=0;orthogonalLoop=1;jettySize=auto;html=1;entryX=0;entryY=0.75;entryDx=0;entryDy=0;" edge="1" parent="1" target="IRetKzblwTkp2qWtMgvH-4">
          <mxGeometry relative="1" as="geometry">
            <mxPoint x="620" y="300" as="sourcePoint" />
          </mxGeometry>
        </mxCell>
        <mxCell id="IRetKzblwTkp2qWtMgvH-28" value="people_number" style="ellipse;whiteSpace=wrap;html=1;aspect=fixed;" vertex="1" parent="1">
          <mxGeometry x="540" y="260" width="80" height="80" as="geometry" />
        </mxCell>
        <mxCell id="IRetKzblwTkp2qWtMgvH-39" style="edgeStyle=orthogonalEdgeStyle;rounded=0;orthogonalLoop=1;jettySize=auto;html=1;entryX=1;entryY=0.75;entryDx=0;entryDy=0;" edge="1" parent="1" source="IRetKzblwTkp2qWtMgvH-29" target="IRetKzblwTkp2qWtMgvH-4">
          <mxGeometry relative="1" as="geometry" />
        </mxCell>
        <mxCell id="IRetKzblwTkp2qWtMgvH-29" value="statue" style="ellipse;whiteSpace=wrap;html=1;aspect=fixed;" vertex="1" parent="1">
          <mxGeometry x="810" y="230" width="60" height="60" as="geometry" />
        </mxCell>
        <mxCell id="IRetKzblwTkp2qWtMgvH-32" style="edgeStyle=orthogonalEdgeStyle;rounded=0;orthogonalLoop=1;jettySize=auto;html=1;exitX=1;exitY=0.5;exitDx=0;exitDy=0;" edge="1" parent="1" source="IRetKzblwTkp2qWtMgvH-30" target="IRetKzblwTkp2qWtMgvH-4">
          <mxGeometry relative="1" as="geometry" />
        </mxCell>
        <mxCell id="IRetKzblwTkp2qWtMgvH-50" style="edgeStyle=orthogonalEdgeStyle;rounded=0;orthogonalLoop=1;jettySize=auto;html=1;exitX=0.5;exitY=1;exitDx=0;exitDy=0;entryX=0.5;entryY=0;entryDx=0;entryDy=0;" edge="1" parent="1" source="IRetKzblwTkp2qWtMgvH-30" target="IRetKzblwTkp2qWtMgvH-2">
          <mxGeometry relative="1" as="geometry" />
        </mxCell>
        <mxCell id="IRetKzblwTkp2qWtMgvH-30" value="Dose" style="rhombus;whiteSpace=wrap;html=1;" vertex="1" parent="1">
          <mxGeometry x="400" y="120" width="80" height="80" as="geometry" />
        </mxCell>
        <mxCell id="IRetKzblwTkp2qWtMgvH-43" style="edgeStyle=orthogonalEdgeStyle;rounded=0;orthogonalLoop=1;jettySize=auto;html=1;" edge="1" parent="1" source="IRetKzblwTkp2qWtMgvH-42" target="IRetKzblwTkp2qWtMgvH-5">
          <mxGeometry relative="1" as="geometry" />
        </mxCell>
        <mxCell id="IRetKzblwTkp2qWtMgvH-42" value="&lt;font face=&quot;Tahoma&quot;&gt;&lt;b&gt;table_id&lt;/b&gt;&lt;/font&gt;" style="ellipse;whiteSpace=wrap;html=1;aspect=fixed;" vertex="1" parent="1">
          <mxGeometry x="407.5" y="-310" width="65" height="65" as="geometry" />
        </mxCell>
        <mxCell id="IRetKzblwTkp2qWtMgvH-47" style="edgeStyle=orthogonalEdgeStyle;rounded=0;orthogonalLoop=1;jettySize=auto;html=1;exitX=1;exitY=0.5;exitDx=0;exitDy=0;entryX=0;entryY=0;entryDx=0;entryDy=0;" edge="1" parent="1" source="IRetKzblwTkp2qWtMgvH-44" target="IRetKzblwTkp2qWtMgvH-5">
          <mxGeometry relative="1" as="geometry" />
        </mxCell>
        <mxCell id="IRetKzblwTkp2qWtMgvH-44" value="availability" style="ellipse;whiteSpace=wrap;html=1;aspect=fixed;" vertex="1" parent="1">
          <mxGeometry x="257.5" y="-220" width="65" height="65" as="geometry" />
        </mxCell>
        <mxCell id="IRetKzblwTkp2qWtMgvH-49" style="edgeStyle=orthogonalEdgeStyle;rounded=0;orthogonalLoop=1;jettySize=auto;html=1;entryX=0.75;entryY=0;entryDx=0;entryDy=0;" edge="1" parent="1" source="IRetKzblwTkp2qWtMgvH-45" target="IRetKzblwTkp2qWtMgvH-5">
          <mxGeometry relative="1" as="geometry" />
        </mxCell>
        <mxCell id="IRetKzblwTkp2qWtMgvH-45" value="seating_caoacity" style="ellipse;whiteSpace=wrap;html=1;aspect=fixed;" vertex="1" parent="1">
          <mxGeometry x="550" y="-237.5" width="100" height="100" as="geometry" />
        </mxCell>
        <mxCell id="IRetKzblwTkp2qWtMgvH-48" style="edgeStyle=orthogonalEdgeStyle;rounded=0;orthogonalLoop=1;jettySize=auto;html=1;" edge="1" parent="1" source="IRetKzblwTkp2qWtMgvH-46" target="IRetKzblwTkp2qWtMgvH-5">
          <mxGeometry relative="1" as="geometry" />
        </mxCell>
        <mxCell id="IRetKzblwTkp2qWtMgvH-46" value="location" style="ellipse;whiteSpace=wrap;html=1;aspect=fixed;" vertex="1" parent="1">
          <mxGeometry x="257.5" y="-127.5" width="65" height="65" as="geometry" />
        </mxCell>
        <mxCell id="IRetKzblwTkp2qWtMgvH-57" style="edgeStyle=orthogonalEdgeStyle;rounded=0;orthogonalLoop=1;jettySize=auto;html=1;exitX=0.5;exitY=0;exitDx=0;exitDy=0;entryX=0.5;entryY=1;entryDx=0;entryDy=0;" edge="1" parent="1" source="IRetKzblwTkp2qWtMgvH-51" target="IRetKzblwTkp2qWtMgvH-2">
          <mxGeometry relative="1" as="geometry" />
        </mxCell>
        <mxCell id="IRetKzblwTkp2qWtMgvH-51" value="&lt;font face=&quot;Tahoma&quot; style=&quot;font-size: 12px;&quot;&gt;&lt;b style=&quot;&quot;&gt;order_id&lt;/b&gt;&lt;/font&gt;" style="ellipse;whiteSpace=wrap;html=1;aspect=fixed;" vertex="1" parent="1">
          <mxGeometry x="410" y="590" width="60" height="60" as="geometry" />
        </mxCell>
        <mxCell id="IRetKzblwTkp2qWtMgvH-61" style="edgeStyle=orthogonalEdgeStyle;rounded=0;orthogonalLoop=1;jettySize=auto;html=1;entryX=0.25;entryY=0;entryDx=0;entryDy=0;" edge="1" parent="1" source="IRetKzblwTkp2qWtMgvH-53" target="IRetKzblwTkp2qWtMgvH-2">
          <mxGeometry relative="1" as="geometry" />
        </mxCell>
        <mxCell id="IRetKzblwTkp2qWtMgvH-53" value="&lt;font face=&quot;Helvetica&quot; style=&quot;font-size: 12px;&quot;&gt;customer_id&lt;/font&gt;" style="ellipse;whiteSpace=wrap;html=1;aspect=fixed;" vertex="1" parent="1">
          <mxGeometry x="310" y="310" width="70" height="70" as="geometry" />
        </mxCell>
        <mxCell id="IRetKzblwTkp2qWtMgvH-59" style="edgeStyle=orthogonalEdgeStyle;rounded=0;orthogonalLoop=1;jettySize=auto;html=1;entryX=0.75;entryY=1;entryDx=0;entryDy=0;" edge="1" parent="1" source="IRetKzblwTkp2qWtMgvH-54" target="IRetKzblwTkp2qWtMgvH-2">
          <mxGeometry relative="1" as="geometry" />
        </mxCell>
        <mxCell id="IRetKzblwTkp2qWtMgvH-54" value="order_date" style="ellipse;whiteSpace=wrap;html=1;aspect=fixed;" vertex="1" parent="1">
          <mxGeometry x="520" y="515" width="70" height="70" as="geometry" />
        </mxCell>
        <mxCell id="IRetKzblwTkp2qWtMgvH-62" style="edgeStyle=orthogonalEdgeStyle;rounded=0;orthogonalLoop=1;jettySize=auto;html=1;entryX=0.75;entryY=0;entryDx=0;entryDy=0;" edge="1" parent="1" source="IRetKzblwTkp2qWtMgvH-55" target="IRetKzblwTkp2qWtMgvH-2">
          <mxGeometry relative="1" as="geometry" />
        </mxCell>
        <mxCell id="IRetKzblwTkp2qWtMgvH-55" value="order_detail" style="ellipse;whiteSpace=wrap;html=1;aspect=fixed;" vertex="1" parent="1">
          <mxGeometry x="450" y="310" width="70" height="70" as="geometry" />
        </mxCell>
        <mxCell id="IRetKzblwTkp2qWtMgvH-60" style="edgeStyle=orthogonalEdgeStyle;rounded=0;orthogonalLoop=1;jettySize=auto;html=1;entryX=0.25;entryY=1;entryDx=0;entryDy=0;" edge="1" parent="1" source="IRetKzblwTkp2qWtMgvH-56" target="IRetKzblwTkp2qWtMgvH-2">
          <mxGeometry relative="1" as="geometry" />
        </mxCell>
        <mxCell id="IRetKzblwTkp2qWtMgvH-56" value="totalprice" style="ellipse;whiteSpace=wrap;html=1;aspect=fixed;" vertex="1" parent="1">
          <mxGeometry x="310" y="530" width="70" height="70" as="geometry" />
        </mxCell>
        <mxCell id="IRetKzblwTkp2qWtMgvH-65" style="edgeStyle=orthogonalEdgeStyle;rounded=0;orthogonalLoop=1;jettySize=auto;html=1;" edge="1" parent="1" source="IRetKzblwTkp2qWtMgvH-63" target="IRetKzblwTkp2qWtMgvH-3">
          <mxGeometry relative="1" as="geometry" />
        </mxCell>
        <mxCell id="IRetKzblwTkp2qWtMgvH-63" value="Pay" style="rhombus;whiteSpace=wrap;html=1;" vertex="1" parent="1">
          <mxGeometry x="660" y="420" width="80" height="80" as="geometry" />
        </mxCell>
        <mxCell id="IRetKzblwTkp2qWtMgvH-69" style="edgeStyle=orthogonalEdgeStyle;rounded=0;orthogonalLoop=1;jettySize=auto;html=1;entryX=1;entryY=0;entryDx=0;entryDy=0;" edge="1" parent="1" source="IRetKzblwTkp2qWtMgvH-66" target="IRetKzblwTkp2qWtMgvH-3">
          <mxGeometry relative="1" as="geometry" />
        </mxCell>
        <mxCell id="IRetKzblwTkp2qWtMgvH-66" value="&lt;font face=&quot;Helvetica&quot; style=&quot;font-size: 12px;&quot;&gt;order_id&lt;/font&gt;" style="ellipse;whiteSpace=wrap;html=1;aspect=fixed;" vertex="1" parent="1">
          <mxGeometry x="1030" y="315" width="60" height="60" as="geometry" />
        </mxCell>
        <mxCell id="IRetKzblwTkp2qWtMgvH-68" style="edgeStyle=orthogonalEdgeStyle;rounded=0;orthogonalLoop=1;jettySize=auto;html=1;entryX=0.5;entryY=0;entryDx=0;entryDy=0;" edge="1" parent="1" source="IRetKzblwTkp2qWtMgvH-67" target="IRetKzblwTkp2qWtMgvH-3">
          <mxGeometry relative="1" as="geometry" />
        </mxCell>
        <mxCell id="IRetKzblwTkp2qWtMgvH-67" value="&lt;font face=&quot;Tahoma&quot; style=&quot;font-size: 12px;&quot;&gt;&lt;b style=&quot;&quot;&gt;payment_id&lt;/b&gt;&lt;/font&gt;" style="ellipse;whiteSpace=wrap;html=1;aspect=fixed;" vertex="1" parent="1">
          <mxGeometry x="877.5" y="267.5" width="85" height="85" as="geometry" />
        </mxCell>
        <mxCell id="IRetKzblwTkp2qWtMgvH-70" value="pay_method" style="ellipse;whiteSpace=wrap;html=1;aspect=fixed;" vertex="1" parent="1">
          <mxGeometry x="1030" y="390" width="80" height="80" as="geometry" />
        </mxCell>
        <mxCell id="IRetKzblwTkp2qWtMgvH-71" style="edgeStyle=orthogonalEdgeStyle;rounded=0;orthogonalLoop=1;jettySize=auto;html=1;entryX=0.989;entryY=0.119;entryDx=0;entryDy=0;entryPerimeter=0;" edge="1" parent="1" source="IRetKzblwTkp2qWtMgvH-70" target="IRetKzblwTkp2qWtMgvH-3">
          <mxGeometry relative="1" as="geometry" />
        </mxCell>
        <mxCell id="IRetKzblwTkp2qWtMgvH-75" style="edgeStyle=orthogonalEdgeStyle;rounded=0;orthogonalLoop=1;jettySize=auto;html=1;entryX=1;entryY=0.5;entryDx=0;entryDy=0;" edge="1" parent="1" source="IRetKzblwTkp2qWtMgvH-72" target="IRetKzblwTkp2qWtMgvH-3">
          <mxGeometry relative="1" as="geometry" />
        </mxCell>
        <mxCell id="IRetKzblwTkp2qWtMgvH-72" value="card_number" style="ellipse;whiteSpace=wrap;html=1;aspect=fixed;" vertex="1" parent="1">
          <mxGeometry x="1030" y="480" width="80" height="80" as="geometry" />
        </mxCell>
        <mxCell id="IRetKzblwTkp2qWtMgvH-77" style="edgeStyle=orthogonalEdgeStyle;rounded=0;orthogonalLoop=1;jettySize=auto;html=1;entryX=0;entryY=0.75;entryDx=0;entryDy=0;" edge="1" parent="1" source="IRetKzblwTkp2qWtMgvH-73" target="IRetKzblwTkp2qWtMgvH-3">
          <mxGeometry relative="1" as="geometry" />
        </mxCell>
        <mxCell id="IRetKzblwTkp2qWtMgvH-73" value="cardholder_name" style="ellipse;whiteSpace=wrap;html=1;aspect=fixed;" vertex="1" parent="1">
          <mxGeometry x="745" y="490" width="100" height="100" as="geometry" />
        </mxCell>
        <mxCell id="IRetKzblwTkp2qWtMgvH-76" style="edgeStyle=orthogonalEdgeStyle;rounded=0;orthogonalLoop=1;jettySize=auto;html=1;entryX=0.25;entryY=0;entryDx=0;entryDy=0;" edge="1" parent="1" source="IRetKzblwTkp2qWtMgvH-74" target="IRetKzblwTkp2qWtMgvH-3">
          <mxGeometry relative="1" as="geometry" />
        </mxCell>
        <mxCell id="IRetKzblwTkp2qWtMgvH-74" value="cardexpiry_date" style="ellipse;whiteSpace=wrap;html=1;aspect=fixed;" vertex="1" parent="1">
          <mxGeometry x="760" y="330" width="100" height="100" as="geometry" />
        </mxCell>
        <mxCell id="IRetKzblwTkp2qWtMgvH-82" style="edgeStyle=orthogonalEdgeStyle;rounded=0;orthogonalLoop=1;jettySize=auto;html=1;exitX=1;exitY=0.5;exitDx=0;exitDy=0;" edge="1" parent="1" source="IRetKzblwTkp2qWtMgvH-78" target="IRetKzblwTkp2qWtMgvH-6">
          <mxGeometry relative="1" as="geometry" />
        </mxCell>
        <mxCell id="IRetKzblwTkp2qWtMgvH-78" value="Does" style="rhombus;whiteSpace=wrap;html=1;" vertex="1" parent="1">
          <mxGeometry x="595" y="740" width="80" height="80" as="geometry" />
        </mxCell>
        <mxCell id="IRetKzblwTkp2qWtMgvH-83" style="edgeStyle=orthogonalEdgeStyle;rounded=0;orthogonalLoop=1;jettySize=auto;html=1;" edge="1" parent="1" source="IRetKzblwTkp2qWtMgvH-80" target="IRetKzblwTkp2qWtMgvH-6">
          <mxGeometry relative="1" as="geometry" />
        </mxCell>
        <mxCell id="IRetKzblwTkp2qWtMgvH-80" value="&lt;font face=&quot;Tahoma&quot; style=&quot;font-size: 12px;&quot;&gt;&lt;b style=&quot;&quot;&gt;delivery_id&lt;/b&gt;&lt;/font&gt;" style="ellipse;whiteSpace=wrap;html=1;aspect=fixed;" vertex="1" parent="1">
          <mxGeometry x="810" y="600" width="80" height="80" as="geometry" />
        </mxCell>
        <mxCell id="IRetKzblwTkp2qWtMgvH-85" style="edgeStyle=orthogonalEdgeStyle;rounded=0;orthogonalLoop=1;jettySize=auto;html=1;entryX=0.75;entryY=0;entryDx=0;entryDy=0;" edge="1" parent="1" source="IRetKzblwTkp2qWtMgvH-84" target="IRetKzblwTkp2qWtMgvH-6">
          <mxGeometry relative="1" as="geometry" />
        </mxCell>
        <mxCell id="IRetKzblwTkp2qWtMgvH-84" value="&lt;font face=&quot;Helvetica&quot; style=&quot;font-size: 12px;&quot;&gt;order_id&lt;/font&gt;" style="ellipse;whiteSpace=wrap;html=1;aspect=fixed;" vertex="1" parent="1">
          <mxGeometry x="950" y="660" width="60" height="60" as="geometry" />
        </mxCell>
        <mxCell id="IRetKzblwTkp2qWtMgvH-86" value="Deliverystaff" style="whiteSpace=wrap;html=1;aspect=fixed;" vertex="1" parent="1">
          <mxGeometry x="1235" y="760" width="80" height="80" as="geometry" />
        </mxCell>
        <mxCell id="IRetKzblwTkp2qWtMgvH-91" style="edgeStyle=orthogonalEdgeStyle;rounded=0;orthogonalLoop=1;jettySize=auto;html=1;entryX=0.5;entryY=0;entryDx=0;entryDy=0;" edge="1" parent="1" source="IRetKzblwTkp2qWtMgvH-87" target="IRetKzblwTkp2qWtMgvH-7">
          <mxGeometry relative="1" as="geometry" />
        </mxCell>
        <mxCell id="IRetKzblwTkp2qWtMgvH-87" value="&lt;font face=&quot;Tahoma&quot; style=&quot;font-size: 12px;&quot;&gt;&lt;b style=&quot;&quot;&gt;menu_id&lt;/b&gt;&lt;/font&gt;" style="ellipse;whiteSpace=wrap;html=1;aspect=fixed;" vertex="1" parent="1">
          <mxGeometry x="-130" y="267.5" width="60" height="60" as="geometry" />
        </mxCell>
        <mxCell id="IRetKzblwTkp2qWtMgvH-90" style="edgeStyle=orthogonalEdgeStyle;rounded=0;orthogonalLoop=1;jettySize=auto;html=1;entryX=1;entryY=0.5;entryDx=0;entryDy=0;" edge="1" parent="1" source="IRetKzblwTkp2qWtMgvH-88" target="IRetKzblwTkp2qWtMgvH-7">
          <mxGeometry relative="1" as="geometry" />
        </mxCell>
        <mxCell id="IRetKzblwTkp2qWtMgvH-88" value="Dose" style="rhombus;whiteSpace=wrap;html=1;" vertex="1" parent="1">
          <mxGeometry x="130" y="420" width="80" height="80" as="geometry" />
        </mxCell>
        <mxCell id="IRetKzblwTkp2qWtMgvH-93" style="edgeStyle=orthogonalEdgeStyle;rounded=0;orthogonalLoop=1;jettySize=auto;html=1;entryX=0.25;entryY=0;entryDx=0;entryDy=0;" edge="1" parent="1" source="IRetKzblwTkp2qWtMgvH-92" target="IRetKzblwTkp2qWtMgvH-7">
          <mxGeometry relative="1" as="geometry" />
        </mxCell>
        <mxCell id="IRetKzblwTkp2qWtMgvH-92" value="menu_name" style="ellipse;whiteSpace=wrap;html=1;aspect=fixed;" vertex="1" parent="1">
          <mxGeometry x="-300" y="330" width="70" height="70" as="geometry" />
        </mxCell>
        <mxCell id="IRetKzblwTkp2qWtMgvH-95" style="edgeStyle=orthogonalEdgeStyle;rounded=0;orthogonalLoop=1;jettySize=auto;html=1;" edge="1" parent="1" source="IRetKzblwTkp2qWtMgvH-94" target="IRetKzblwTkp2qWtMgvH-86">
          <mxGeometry relative="1" as="geometry" />
        </mxCell>
        <mxCell id="IRetKzblwTkp2qWtMgvH-94" value="&lt;font face=&quot;Tahoma&quot; style=&quot;font-size: 12px;&quot;&gt;&lt;b style=&quot;&quot;&gt;deliverystaff_id&lt;/b&gt;&lt;/font&gt;" style="ellipse;whiteSpace=wrap;html=1;aspect=fixed;" vertex="1" parent="1">
          <mxGeometry x="1225" y="580" width="100" height="100" as="geometry" />
        </mxCell>
        <mxCell id="IRetKzblwTkp2qWtMgvH-97" style="edgeStyle=orthogonalEdgeStyle;rounded=0;orthogonalLoop=1;jettySize=auto;html=1;" edge="1" parent="1" source="IRetKzblwTkp2qWtMgvH-96" target="IRetKzblwTkp2qWtMgvH-8">
          <mxGeometry relative="1" as="geometry" />
        </mxCell>
        <mxCell id="IRetKzblwTkp2qWtMgvH-96" value="&lt;font face=&quot;Tahoma&quot; style=&quot;font-size: 12px;&quot;&gt;&lt;b style=&quot;&quot;&gt;coffee_id&lt;/b&gt;&lt;/font&gt;" style="ellipse;whiteSpace=wrap;html=1;aspect=fixed;" vertex="1" parent="1">
          <mxGeometry x="70" y="600" width="60" height="60" as="geometry" />
        </mxCell>
      </root>
    </mxGraphModel>
  </diagram>
</mxfile>
